<svg xmlns="http://www.w3.org/2000/svg" width="22" height="22" viewBox="0 0 22 22" fill="none">
<rect width="22" height="22" rx="4" fill="white"/>
<path d="M5.5 18.7V3.29999H11.5537C12.7125 3.29999 13.7015 3.50803 14.5207 3.92411C15.3448 4.33518 15.9717 4.91919 16.4012 5.67616C16.8358 6.42811 17.0531 7.31291 17.0531 8.33055C17.0531 9.35321 16.8333 10.233 16.3937 10.9699C15.9542 11.7018 15.3174 12.2633 14.4832 12.6543C13.6541 13.0453 12.6501 13.2408 11.4713 13.2408H7.41802V10.624H10.9469C11.5662 10.624 12.0807 10.5388 12.4903 10.3683C12.8999 10.1979 13.2045 9.94224 13.4043 9.60135C13.6091 9.26047 13.7115 8.83687 13.7115 8.33055C13.7115 7.81923 13.6091 7.38811 13.4043 7.03719C13.2045 6.68628 12.8974 6.42059 12.4828 6.24012C12.0732 6.05464 11.5562 5.9619 10.9319 5.9619H8.74415V18.7H5.5ZM13.7864 11.6918L17.6 18.7H14.0187L10.2876 11.6918H13.7864Z" fill="#111111"/>
</svg>